<mxfile host="app.diagrams.net" modified="2022-06-24T05:24:34.773Z" agent="5.0 (Macintosh; Intel Mac OS X 10_15_7) AppleWebKit/537.36 (KHTML, like Gecko) Chrome/102.0.0.0 Safari/537.36" etag="QOdlDvuzlW4l6SsgwxsQ" version="18.2.0" type="github">
  <diagram id="eqWuLY_z4YQiVNft02pO" name="Page-1">
    <mxGraphModel dx="2008" dy="659" grid="1" gridSize="10" guides="1" tooltips="1" connect="1" arrows="1" fold="1" page="1" pageScale="1" pageWidth="827" pageHeight="1169" math="0" shadow="0">
      <root>
        <mxCell id="0" />
        <mxCell id="1" parent="0" />
        <mxCell id="wQNlvQCzxhob11wY_32o-38" value="" style="group" parent="1" vertex="1" connectable="0">
          <mxGeometry x="-600" y="112" width="590" height="228" as="geometry" />
        </mxCell>
        <mxCell id="wQNlvQCzxhob11wY_32o-6" value="" style="rounded=1;whiteSpace=wrap;html=1;fillColor=#dae8fc;strokeWidth=2;strokeColor=#6c8ebf;" parent="wQNlvQCzxhob11wY_32o-38" vertex="1">
          <mxGeometry width="577.4468085106382" height="228" as="geometry" />
        </mxCell>
        <mxCell id="wQNlvQCzxhob11wY_32o-7" value="&lt;font style=&quot;font-size: 13px; line-height: 0.7;&quot;&gt;Nebula Real Time Exchange&lt;br&gt;&lt;/font&gt;" style="text;strokeColor=none;fillColor=none;html=1;fontSize=24;fontStyle=1;verticalAlign=middle;align=center;rounded=1;" parent="wQNlvQCzxhob11wY_32o-38" vertex="1">
          <mxGeometry x="156.91489361702128" width="276.17021276595744" height="29.73913043478261" as="geometry" />
        </mxCell>
        <mxCell id="wQNlvQCzxhob11wY_32o-16" value="" style="group" parent="wQNlvQCzxhob11wY_32o-38" vertex="1" connectable="0">
          <mxGeometry x="401.70212765957444" y="51.547826086956526" width="150.63829787234042" height="148.69565217391306" as="geometry" />
        </mxCell>
        <mxCell id="wQNlvQCzxhob11wY_32o-17" value="" style="group" parent="wQNlvQCzxhob11wY_32o-16" vertex="1" connectable="0">
          <mxGeometry width="150.63829787234042" height="148.69565217391306" as="geometry" />
        </mxCell>
        <mxCell id="wQNlvQCzxhob11wY_32o-18" value="" style="rounded=0;whiteSpace=wrap;html=1;fontSize=10;fillColor=#FFFFFF;" parent="wQNlvQCzxhob11wY_32o-17" vertex="1">
          <mxGeometry width="150.63829787234042" height="148.69565217391306" as="geometry" />
        </mxCell>
        <mxCell id="wQNlvQCzxhob11wY_32o-19" value="&lt;font style=&quot;font-size: 17px;&quot;&gt;Writer&lt;/font&gt;" style="rounded=0;whiteSpace=wrap;html=1;fontSize=10;fillColor=#FFFFFF;strokeWidth=0;strokeColor=none;" parent="wQNlvQCzxhob11wY_32o-17" vertex="1">
          <mxGeometry x="15.063829787234042" y="0.991304347826087" width="120.51063829787233" height="29.73913043478261" as="geometry" />
        </mxCell>
        <mxCell id="wQNlvQCzxhob11wY_32o-37" value="&lt;div&gt;&lt;span style=&quot;background-color: initial;&quot;&gt;nebula-flink-connector&lt;/span&gt;&lt;br&gt;&lt;/div&gt;" style="rounded=1;whiteSpace=wrap;html=1;fontSize=10;strokeWidth=1;fillColor=#b1ddf0;strokeColor=#10739e;" parent="wQNlvQCzxhob11wY_32o-17" vertex="1">
          <mxGeometry x="4.393617021276596" y="46.095652173913045" width="141.85106382978722" height="56.504347826086956" as="geometry" />
        </mxCell>
        <mxCell id="wQNlvQCzxhob11wY_32o-24" value="" style="group" parent="wQNlvQCzxhob11wY_32o-38" vertex="1" connectable="0">
          <mxGeometry x="210.89361702127658" y="51.547826086956526" width="163.19148936170208" height="148.69565217391306" as="geometry" />
        </mxCell>
        <mxCell id="wQNlvQCzxhob11wY_32o-25" value="" style="group" parent="wQNlvQCzxhob11wY_32o-24" vertex="1" connectable="0">
          <mxGeometry width="163.19148936170208" height="148.69565217391306" as="geometry" />
        </mxCell>
        <mxCell id="wQNlvQCzxhob11wY_32o-26" value="" style="rounded=0;whiteSpace=wrap;html=1;fontSize=10;fillColor=#FFFFFF;" parent="wQNlvQCzxhob11wY_32o-25" vertex="1">
          <mxGeometry width="163.19148936170208" height="148.69565217391306" as="geometry" />
        </mxCell>
        <mxCell id="wQNlvQCzxhob11wY_32o-27" value="&lt;font style=&quot;font-size: 17px;&quot;&gt;Processor&lt;/font&gt;" style="rounded=0;whiteSpace=wrap;html=1;fontSize=10;fillColor=#FFFFFF;strokeWidth=0;strokeColor=none;" parent="wQNlvQCzxhob11wY_32o-25" vertex="1">
          <mxGeometry x="16.31914893617021" y="0.991304347826087" width="130.55319148936167" height="29.73913043478261" as="geometry" />
        </mxCell>
        <mxCell id="wQNlvQCzxhob11wY_32o-34" value="&lt;font style=&quot;font-size: 10px;&quot;&gt;VerticesProcessor&lt;/font&gt;" style="rounded=1;whiteSpace=wrap;html=1;fontSize=10;strokeWidth=1;fillColor=#b1ddf0;strokeColor=#10739e;" parent="wQNlvQCzxhob11wY_32o-25" vertex="1">
          <mxGeometry x="10.670212765957444" y="47.58260869565218" width="141.8510638297872" height="38.660869565217396" as="geometry" />
        </mxCell>
        <mxCell id="wQNlvQCzxhob11wY_32o-36" value="&lt;font style=&quot;font-size: 10px;&quot;&gt;EdgeProcessor&lt;/font&gt;" style="rounded=1;whiteSpace=wrap;html=1;fontSize=10;strokeWidth=1;fillColor=#b1ddf0;strokeColor=#10739e;" parent="wQNlvQCzxhob11wY_32o-25" vertex="1">
          <mxGeometry x="10.670212765957444" y="94.17391304347827" width="141.8510638297872" height="38.660869565217396" as="geometry" />
        </mxCell>
        <mxCell id="wQNlvQCzxhob11wY_32o-28" value="" style="group" parent="wQNlvQCzxhob11wY_32o-38" vertex="1" connectable="0">
          <mxGeometry x="25.106382978723403" y="52.539130434782614" width="154.40425531914894" height="148.69565217391306" as="geometry" />
        </mxCell>
        <mxCell id="wQNlvQCzxhob11wY_32o-29" value="" style="group" parent="wQNlvQCzxhob11wY_32o-28" vertex="1" connectable="0">
          <mxGeometry width="154.40425531914894" height="148.69565217391306" as="geometry" />
        </mxCell>
        <mxCell id="wQNlvQCzxhob11wY_32o-30" value="" style="rounded=0;whiteSpace=wrap;html=1;fontSize=10;fillColor=#FFFFFF;" parent="wQNlvQCzxhob11wY_32o-29" vertex="1">
          <mxGeometry width="154.40425531914892" height="148.69565217391306" as="geometry" />
        </mxCell>
        <mxCell id="wQNlvQCzxhob11wY_32o-31" value="&lt;font style=&quot;font-size: 17px;&quot;&gt;Reader&lt;/font&gt;" style="rounded=0;whiteSpace=wrap;html=1;fontSize=10;fillColor=#FFFFFF;strokeWidth=0;strokeColor=none;" parent="wQNlvQCzxhob11wY_32o-29" vertex="1">
          <mxGeometry x="15.440425531914892" y="0.991304347826087" width="123.52340425531914" height="29.73913043478261" as="geometry" />
        </mxCell>
        <mxCell id="wQNlvQCzxhob11wY_32o-32" value="&lt;font style=&quot;font-size: 10px;&quot;&gt;flink-connector-mysql-cdc&lt;/font&gt;" style="rounded=1;whiteSpace=wrap;html=1;fontSize=10;strokeWidth=1;fillColor=#b1ddf0;strokeColor=#10739e;" parent="wQNlvQCzxhob11wY_32o-29" vertex="1">
          <mxGeometry x="6.276595744680851" y="46.095652173913045" width="141.85106382978722" height="56.504347826086956" as="geometry" />
        </mxCell>
        <mxCell id="wQNlvQCzxhob11wY_32o-42" value="" style="endArrow=classic;html=1;rounded=0;fontSize=17;strokeWidth=2;entryX=0;entryY=0.5;entryDx=0;entryDy=0;exitX=0.991;exitY=0.568;exitDx=0;exitDy=0;exitPerimeter=0;" parent="wQNlvQCzxhob11wY_32o-38" source="wQNlvQCzxhob11wY_32o-32" target="wQNlvQCzxhob11wY_32o-34" edge="1">
          <mxGeometry width="50" height="50" relative="1" as="geometry">
            <mxPoint x="188.29787234042553" y="125.89565217391305" as="sourcePoint" />
            <mxPoint x="87.87234042553193" y="64.43478260869566" as="targetPoint" />
          </mxGeometry>
        </mxCell>
        <mxCell id="JTlxHxClI-i5xBCgS5iH-1" value="&lt;span style=&quot;color: rgb(0, 0, 0); font-family: Helvetica; font-size: 13px; font-style: normal; font-variant-ligatures: normal; font-variant-caps: normal; font-weight: 700; letter-spacing: normal; orphans: 2; text-align: center; text-indent: 0px; text-transform: none; widows: 2; word-spacing: 0px; -webkit-text-stroke-width: 0px; text-decoration-thickness: initial; text-decoration-style: initial; text-decoration-color: initial; float: none; display: inline !important;&quot;&gt;(Flink)&lt;/span&gt;" style="text;whiteSpace=wrap;html=1;fontSize=12;" vertex="1" parent="wQNlvQCzxhob11wY_32o-38">
          <mxGeometry x="275.9677419354839" y="22.8" width="57.09677419354839" height="29.73913043478261" as="geometry" />
        </mxCell>
        <mxCell id="JTlxHxClI-i5xBCgS5iH-6" value="" style="endArrow=classic;html=1;rounded=0;fontSize=17;strokeWidth=2;entryX=0;entryY=0.5;entryDx=0;entryDy=0;exitX=1;exitY=0.5;exitDx=0;exitDy=0;" edge="1" parent="wQNlvQCzxhob11wY_32o-38" source="wQNlvQCzxhob11wY_32o-36" target="wQNlvQCzxhob11wY_32o-37">
          <mxGeometry width="50" height="50" relative="1" as="geometry">
            <mxPoint x="190" y="148" as="sourcePoint" />
            <mxPoint x="228.58495744680863" y="172.5778782608695" as="targetPoint" />
          </mxGeometry>
        </mxCell>
        <mxCell id="JTlxHxClI-i5xBCgS5iH-8" value="" style="endArrow=classic;html=1;rounded=0;fontSize=17;strokeWidth=2;entryX=0;entryY=0.5;entryDx=0;entryDy=0;exitX=1;exitY=0.5;exitDx=0;exitDy=0;" edge="1" parent="wQNlvQCzxhob11wY_32o-38" source="wQNlvQCzxhob11wY_32o-34" target="wQNlvQCzxhob11wY_32o-37">
          <mxGeometry width="50" height="50" relative="1" as="geometry">
            <mxPoint x="200" y="158" as="sourcePoint" />
            <mxPoint x="238.58495744680863" y="182.5778782608695" as="targetPoint" />
          </mxGeometry>
        </mxCell>
        <mxCell id="wQNlvQCzxhob11wY_32o-3" value="binlog" style="edgeStyle=orthogonalEdgeStyle;rounded=0;orthogonalLoop=1;jettySize=auto;html=1;exitX=1;exitY=0.5;exitDx=0;exitDy=0;exitPerimeter=0;dashed=1;strokeWidth=2;entryX=0;entryY=0.5;entryDx=0;entryDy=0;" parent="1" source="wQNlvQCzxhob11wY_32o-1" target="wQNlvQCzxhob11wY_32o-30" edge="1">
          <mxGeometry relative="1" as="geometry">
            <mxPoint x="-600" y="240" as="targetPoint" />
          </mxGeometry>
        </mxCell>
        <mxCell id="wQNlvQCzxhob11wY_32o-1" value="&lt;br&gt;MySQL" style="strokeWidth=2;html=1;shape=mxgraph.flowchart.database;whiteSpace=wrap;fillColor=#1ba1e2;fontColor=#ffffff;strokeColor=#006EAF;" parent="1" vertex="1">
          <mxGeometry x="-780" y="210" width="110" height="60" as="geometry" />
        </mxCell>
        <mxCell id="wQNlvQCzxhob11wY_32o-44" value="&lt;br&gt;Nebula Graph" style="strokeWidth=2;html=1;shape=mxgraph.flowchart.database;whiteSpace=wrap;fillColor=#1ba1e2;fontColor=#ffffff;strokeColor=#006EAF;" parent="1" vertex="1">
          <mxGeometry x="20" y="207.9" width="110" height="60" as="geometry" />
        </mxCell>
        <mxCell id="wQNlvQCzxhob11wY_32o-45" value="" style="edgeStyle=none;rounded=0;orthogonalLoop=1;jettySize=auto;html=1;fontSize=17;strokeWidth=2;entryX=0;entryY=0.5;entryDx=0;entryDy=0;entryPerimeter=0;" parent="1" source="wQNlvQCzxhob11wY_32o-18" target="wQNlvQCzxhob11wY_32o-44" edge="1">
          <mxGeometry relative="1" as="geometry">
            <mxPoint x="40" y="239" as="targetPoint" />
          </mxGeometry>
        </mxCell>
        <mxCell id="JTlxHxClI-i5xBCgS5iH-4" value="" style="endArrow=classic;html=1;rounded=0;fontSize=17;strokeWidth=2;exitX=0.995;exitY=0.598;exitDx=0;exitDy=0;exitPerimeter=0;" edge="1" parent="1" source="wQNlvQCzxhob11wY_32o-32">
          <mxGeometry width="50" height="50" relative="1" as="geometry">
            <mxPoint x="-420" y="250" as="sourcePoint" />
            <mxPoint x="-380" y="277" as="targetPoint" />
          </mxGeometry>
        </mxCell>
      </root>
    </mxGraphModel>
  </diagram>
</mxfile>
